<?xml version="1.0" encoding="utf-8"?>
<!-- Generator: Adobe Illustrator 26.0.2, SVG Export Plug-In . SVG Version: 6.00 Build 0)  -->
<svg version="1.1" id="Calque_1" xmlns="http://www.w3.org/2000/svg" xmlns:xlink="http://www.w3.org/1999/xlink" x="0px" y="0px"
	 viewBox="0 0 490 381" style="enable-background:new 0 0 490 381;" xml:space="preserve">
<style type="text/css">
	.st0{fill:#283E56;}
	.st1{fill:#FFFFFF;}
	.st2{font-family:'Menlo-Regular';}
	.st3{font-size:18px;}
	.st4{fill:#2B4760;}
	.st5{fill:#FF5F57;}
	.st6{fill:#FEBC2E;}
	.st7{fill:#28C840;}
	.st8{fill:#FFFFFF;fill-opacity:0.2;}
</style>
<g id="Group_71">
	<g id="Group_65">
		<path id="Rectangle_40" class="st0" d="M0,32h490v343c0,3.3-2.7,6-6,6H6c-3.3,0-6-2.7-6-6V32z"/>
		<text transform="matrix(1 0 0 1 29.914 87.25)" class="st1 st2 st3">1</text>
		<text transform="matrix(1 0 0 1 29.914 154.221)" class="st1 st2 st3">2</text>
		<path id="Rectangle_14" class="st4" d="M0,6c0-3.3,2.7-6,6-6h478c3.3,0,6,2.7,6,6v26H0V6z"/>
		<circle id="Ellipse_11" class="st5" cx="20.2" cy="16.1" r="5.4"/>
		<circle id="Ellipse_12" class="st6" cx="35.2" cy="16.1" r="5.4"/>
		<circle id="Ellipse_13" class="st7" cx="50.3" cy="16.1" r="5.4"/>
		<g id="Group_64">
			<path id="Rectangle_41" class="st8" d="M90.2,133.1h193.7c7.1,0,12.9,5.8,12.9,12.9l0,0c0,7.1-5.8,12.9-12.9,12.9H90.2
				c-7.1,0-12.9-5.8-12.9-12.9l0,0C77.3,138.9,83,133.1,90.2,133.1z"/>
			<path id="Rectangle_42" class="st8" d="M90.5,66.3h57.7c7.3,0,13.3,5.9,13.3,13.3l0,0c0,7.3-5.9,13.3-13.3,13.3H90.5
				c-7.3,0-13.3-5.9-13.3-13.3l0,0C77.3,72.3,83.2,66.3,90.5,66.3z"/>
			<path id="Rectangle_42_00000141449634521833760210000005508111026594760372_" class="st8" d="M329.6,132.8h57.7
				c7.3,0,13.3,5.9,13.3,13.3l0,0c0,7.3-5.9,13.3-13.3,13.3h-57.7c-7.3,0-13.3-5.9-13.3-13.3l0,0
				C316.3,138.7,322.2,132.8,329.6,132.8z"/>
		</g>
	</g>
</g>
</svg>
