<svg xmlns:dc="http://purl.org/dc/elements/1.1/" xmlns:cc="http://creativecommons.org/ns#" xmlns:rdf="http://www.w3.org/1999/02/22-rdf-syntax-ns#" xmlns:svg="http://www.w3.org/2000/svg" xmlns="http://www.w3.org/2000/svg" xmlns:sodipodi="http://sodipodi.sourceforge.net/DTD/sodipodi-0.dtd" xmlns:inkscape="http://www.inkscape.org/namespaces/inkscape" width="512" height="512" id="svg2" version="1.1" inkscape:version="0.48.4 r9939" sodipodi:docname="quasar_icon.svg" inkscape:export-filename="/u/sdonn/Desktop/Research/Varia/QuasarLogo/drawing.png" inkscape:export-xdpi="300.07971" inkscape:export-ydpi="300.07971">
  <defs id="defs4">
    <clipPath clipPathUnits="userSpaceOnUse" id="clipPath4363">
      <path style="fill:none;stroke:#000000;stroke-width:1px;stroke-linecap:butt;stroke-linejoin:miter;stroke-opacity:1" d="m 447.76149,100.64086 32,80.5 -235,26.5 -26,-281 431.5,-49 38.5,328 -137,-38.5 -44.5,-103.5 z" id="path4365" inkscape:connector-curvature="0"/>
    </clipPath>
    <clipPath clipPathUnits="userSpaceOnUse" id="clipPath4367">
      <path style="fill:none;stroke:#000000;stroke-width:1px;stroke-linecap:butt;stroke-linejoin:miter;stroke-opacity:1" d="m 447.76149,100.64086 32,80.5 -235,26.5 -26,-281 431.5,-49 38.5,328 -137,-38.5 -44.5,-103.5 z" id="path4369" inkscape:connector-curvature="0"/>
    </clipPath>
    <clipPath clipPathUnits="userSpaceOnUse" id="clipPath4371">
      <path style="fill:none;stroke:#000000;stroke-width:1px;stroke-linecap:butt;stroke-linejoin:miter;stroke-opacity:1" d="m 447.76149,100.64086 32,80.5 -235,26.5 -26,-281 431.5,-49 38.5,328 -137,-38.5 -44.5,-103.5 z" id="path4373" inkscape:connector-curvature="0"/>
    </clipPath>
    <clipPath clipPathUnits="userSpaceOnUse" id="clipPath4377">
      <path style="fill:none;stroke:#000000;stroke-width:1px;stroke-linecap:butt;stroke-linejoin:miter;stroke-opacity:1" d="M 416.62145,28.3484 C 437.52657,8.57853 457.82194,-0.52049 477.78618,-3.82496 l 109.60155,234.05235 -136.4716,33.58757 -180.31223,-397.74757 154.14927,-50.20458 26.51651,103.23759 c -28.04152,1.91381 -45.21136,4.19908 -78.1353,15.9099 z" id="path4379" inkscape:connector-curvature="0" sodipodi:nodetypes="ccccccccc"/>
    </clipPath>
  </defs>
  <sodipodi:namedview id="base" pagecolor="#ffffff" bordercolor="#666666" borderopacity="1.0" inkscape:pageopacity="0.0" inkscape:pageshadow="2" inkscape:zoom="1.4142136" inkscape:cx="280.32967" inkscape:cy="259.61086" inkscape:document-units="px" inkscape:current-layer="g3027" showgrid="false" fit-margin-top="0" fit-margin-left="0" fit-margin-right="0" fit-margin-bottom="0" showguides="true" inkscape:guide-bbox="true" inkscape:window-width="1920" inkscape:window-height="1145" inkscape:window-x="1920" inkscape:window-y="33" inkscape:window-maximized="0" inkscape:snap-bbox="true" inkscape:snap-bbox-midpoints="true"/>
  <metadata id="metadata7">
    <rdf:RDF>
      <cc:Work rdf:about="">
        <dc:format>image/svg+xml</dc:format>
        <dc:type rdf:resource="http://purl.org/dc/dcmitype/StillImage"/>
        <dc:title/>
      </cc:Work>
    </rdf:RDF>
  </metadata>
  <g inkscape:label="Layer 1" inkscape:groupmode="layer" id="layer1" transform="translate(-191.76149,195.85914)">
    <g transform="matrix(1.25,0,0,-1.25,-531.71534,643.2858)" inkscape:label="ink_ext_XXXXXX" id="g3025">
      <g transform="scale(0.164554,0.164554)" id="g3027">
        <path id="path3029" style="fill:#000000;fill-opacity:1;fill-rule:nonzero;stroke:none" d="m 4752.6578,2154.0577 c -311.4859,0 -597.1587,112.8406 -783.783,309.5894 -69.9088,73.7022 -119.6024,154.2726 -147.6982,239.469 -26.884,81.5168 -33.5566,165.5238 -19.8457,249.6776 15.9608,97.9508 60.3832,194.8893 128.4613,280.3388 67.153,84.2853 158.147,158.3469 263.1386,214.1828 22.7382,12.0965 50.9867,3.467 63.0801,-19.2834 12.098,-22.7403 3.4639,-50.9822 -19.2784,-63.0786 -93.8132,-49.8839 -174.7222,-115.5691 -233.9846,-189.9445 -58.1393,-72.9785 -95.9526,-155.0065 -109.3472,-237.2218 -23.5648,-144.6106 25.9349,-286.3667 143.153,-409.9427 85.7708,-90.4247 194.1351,-161.0092 322.0841,-209.8049 121.2934,-46.2519 257.5428,-70.6979 394.02,-70.6979 136.4822,0 272.7316,24.446 394.0199,70.6979 127.9541,48.7957 236.3159,119.3802 322.0842,209.8049 117.219,123.576 166.7183,265.3321 143.158,409.9427 -13.3971,82.2153 -51.2099,164.2433 -109.3538,237.2218 -59.2574,74.3754 -140.1668,140.0606 -233.9826,189.9445 -22.7403,12.0964 -31.3748,40.3383 -19.2784,63.0786 12.0965,22.7453 40.3384,31.3748 63.0787,19.2834 104.9961,-55.8359 195.9876,-129.8975 263.1405,-214.1828 68.0792,-85.4495 112.502,-182.388 128.4652,-280.3388 13.711,-84.1538 7.0352,-168.1608 -19.8503,-249.6776 -28.0951,-85.1964 -77.7867,-165.7668 -147.698,-239.469 -186.6243,-196.7488 -472.3027,-309.5894 -783.7834,-309.5894" inkscape:connector-curvature="0"/>
        <path id="path3031" style="fill:#000000;fill-opacity:1;fill-rule:nonzero;stroke:none" d="m 4752.6578,2493.7465 c -25.7619,0 -46.6396,20.8777 -46.6396,46.6396 0,25.7568 20.8777,46.6396 46.6396,46.6396 203.5795,0 383.2647,72.3054 480.6588,193.4165 59.6623,74.1831 81.451,157.7649 63.0027,241.7112 -19.3594,88.1471 -84.9686,169.5374 -184.7415,229.1743 -101.4278,60.629 -228.896,94.0233 -358.92,94.0233 -130.0241,0 -257.4922,-33.3943 -358.9201,-94.0233 -99.7713,-59.6369 -165.3796,-141.0272 -184.743,-229.1743 -13.1416,-59.8243 -5.5755,-119.0918 22.4852,-176.1475 11.3676,-23.1148 1.8423,-51.0682 -21.2695,-62.4409 -23.1234,-11.3676 -51.0692,-1.8423 -62.4373,21.2725 -37.0936,75.418 -47.4297,157.4866 -29.8914,237.3332 24.9409,113.5344 105.9132,216.2529 227.9966,289.2263 115.6855,69.1522 260.1494,107.2383 406.7795,107.2383 146.6351,0 291.099,-38.0861 406.7845,-107.2383 122.0778,-72.9734 203.0481,-175.6919 227.99,-289.2263 24.3599,-110.8975 -4.5551,-224.6091 -81.4156,-320.1862 -114.9314,-142.9202 -321.7956,-228.238 -553.3589,-228.238" inkscape:connector-curvature="0"/>
        <path id="path3033" style="fill:#000000;fill-opacity:1;fill-rule:nonzero;stroke:none" d="m 4752.6578,2752.9443 c -42.6969,0 -84.3309,5.7243 -123.7431,17.011 -24.7648,7.0857 -39.0932,32.9185 -31.9973,57.6782 7.0908,24.7648 32.9337,39.0831 57.6782,31.9974 31.0611,-8.8927 64.0504,-13.4023 98.0622,-13.4023 89.1543,0 169.6285,30.393 215.2558,81.3144 17.8511,19.9161 38.1823,52.2678 33.6777,93.2792 -9.2165,83.9058 -120.8884,152.1722 -248.9335,152.1722 -128.0451,0 -239.717,-68.2664 -248.9336,-152.1722 -2.8141,-25.6049 -25.8682,-44.0583 -51.4529,-41.2696 -25.605,2.8141 -44.0837,25.853 -41.2696,51.458 7.3844,67.2592 48.74,128.4702 116.4396,172.3616 62.5776,40.561 142.5558,62.9015 225.2165,62.9015 82.6556,0 162.6439,-22.3405 225.2215,-62.9015 67.6945,-43.8914 109.0501,-105.1024 116.4345,-172.3616 6.4532,-58.7108 -13.7666,-117.5683 -56.9291,-165.7263 -63.0432,-70.3415 -169.4818,-112.34 -284.7269,-112.34" inkscape:connector-curvature="0"/>
        <path id="path3035" style="fill:#000000;fill-opacity:1;fill-rule:nonzero;stroke:none" d="m 4753.093,2962.9567 c -20.5082,0 -39.3007,13.625 -44.9694,34.3559 l -217.8371,796.8719 c -6.7922,24.8509 7.845,50.4963 32.6908,57.2885 24.866,6.7973 50.4963,-7.8399 57.2936,-32.6907 l 217.8371,-796.8769 c 6.7922,-24.8458 -7.845,-50.4913 -32.6908,-57.2886 -4.1198,-1.1236 -8.2549,-1.6601 -12.3242,-1.6601" inkscape:connector-curvature="0"/>
        <path id="path3037" style="fill:#000000;fill-opacity:1;fill-rule:nonzero;stroke:none" d="m 5076.0629,1795.3619 c -20.5032,0 -39.2957,13.622 -44.9643,34.3534 l -101.3469,370.7361 c -6.7923,24.8539 7.8449,50.4983 32.6907,57.2931 24.866,6.7856 50.4963,-7.843 57.2936,-32.6923 l 101.3469,-370.7366 c 6.7872,-24.8494 -7.85,-50.4978 -32.6958,-57.293 -4.1148,-1.1229 -8.2549,-1.6607 -12.3242,-1.6607" inkscape:connector-curvature="0"/>
      </g>
    </g>
  </g>
</svg>