<svg id="e5937efd-89aa-472c-b6be-3b6243de01b4" data-name="Calque 1" xmlns="http://www.w3.org/2000/svg" viewBox="0 0 715.7 806.3"><g id="fd63345f-da91-4aa0-87a0-7735e58fd651" data-name="SvgjsG1144"><path d="M713.9,43.12a5.77,5.77,0,0,0-8.26,0l-286.08,290L667.2,9.51A6.14,6.14,0,0,0,666,1.13a6,6,0,0,0-8.25,1.18L403.28,335C330,245.79,180.09,121.53,107.17,129.9a5.79,5.79,0,0,0,4.34,6.94C190,153.32,320.36,248.5,395.85,344.89l-13.68,17.92a50.71,50.71,0,0,0-23.58-7.19c-56.21-70.85-222.46-208-298.83-164.39-9.67,8.26-18.27,25.59-4.48,61.56,2.68,7.19,13.84,2.86,11-4.25-26.24-76.4,39.2-67.23,132.31-15.09A601.34,601.34,0,0,1,344.2,356a44.63,44.63,0,0,0-9.43,3.07C132,204,83.49,327.07,258.94,493.83L1.74,754.8a5.9,5.9,0,0,0,0,8.37,5.81,5.81,0,0,0,8.26-.12L267.2,502.44l3.77,3.65L48.91,796.78a6.13,6.13,0,0,0,1.18,8.37A6,6,0,0,0,58.35,804L279.81,514.11c6.31,4.14,20.73,24.61,27.66,16.57a5.9,5.9,0,0,0-.65-8.31C124.17,369,99.42,208.72,317.43,361.16c-30.3-6.13-43.28,3.07-48.7,11.79C247.87,493.88,518.05,675.51,597,689c7.57,1.09,10.13-9.65,2.48-11.68C522.61,664.53,273.29,493,278.74,379.56a26.54,26.54,0,0,1,26.07-8,26.36,26.36,0,0,0,4.13,18.16C337.3,473.85,511.06,628.05,620.5,633.45c35.73-1.65,53.23-20.18,35.26-71-2.64-7.2-13.79-3-11.08,4.13,27,76.08-39.32,67.21-132.31,15.21A580.67,580.67,0,0,1,343.85,428.5l5.66,4.48a2.81,2.81,0,0,1,0,.71c50.82,41.31,108.28,86.13,175.35,93.16,81.27-10.29,15.62-119.73-74.64-208.49L714,51.49A5.89,5.89,0,0,0,713.9,43.12ZM403.52,427.79a51.79,51.79,0,0,0-7.43-53.66l12.5-12.61c32.18,48.17,40.9,85.27-1.77,81.84A23.57,23.57,0,0,0,403.52,427.79ZM339,408.57c-6.53-6.76-13.38-14.11-18.28-22.17,10.53-18.39,35.75-25.18,54-14.39L353.4,400a5.9,5.9,0,0,0,.82,8,5.74,5.74,0,0,0,8-.24l24.89-25.23c13.72,16.56,10.6,42.31-5.66,56C365.66,431.48,351.64,420.25,339,408.57Zm205.43,99.88C511,533.28,427.91,477.92,393.85,453.38c66.56,13.9,65.06-43.57,22.76-100.47l25.71-26.18C523,404.79,566.37,482.86,544.44,508.45Z" transform="translate(0 0)"/></g></svg>